<?xml version="1.0" encoding="UTF-8"?>
<!-- Created with Inkscape (http://www.inkscape.org/) -->
<svg width="962.3" height="844.52" version="1.1" viewBox="0 0 962.3 844.52" xmlns="http://www.w3.org/2000/svg">
 <g transform="translate(-69.559 -93.535)">
  <g transform="translate(-75.769,-62.338)" stroke="#fff">
   <g transform="matrix(3.1533,0,0,3.1533,-303.38,-241.23)">
    <g stroke="none">
     <g transform="translate(1.3279 3.0985)" fill="#6421ac">
      <path d="m264.62 217.27 40.088-0.32995c6.391 36.971-43.813 44.854-40.088 0.32995z"/>
      <ellipse cx="212.06" cy="202.26" rx="2.9688" ry="2.9695"/>
      <circle cx="215.92" cy="192.82" r="5.6693"/>
      <path d="m224.38 174.84c-14.089 0.22027-27.952 11.378-25.367 35.365l51.561-1.166c4.0568-22.273-11.196-34.434-26.193-34.199zm-1.2832 5.9414c11.292-0.064 23.327 10.517 20.711 24.99l-38.496 0.93359c-0.41848-18.509 8.4287-25.871 17.785-25.924z"/>
      <path d="m220.47 124.12c-12.941-3.3432-29.665-0.30193-34.816 10.691-5.1749 11.043-15.461 32.871-23.41 59.74-6.2096 20.991-9.8055 41.979-10.415 59.728-1.2254 35.696 4.993 54.252 30.225 37.714 12.87-8.4351 23.753-26.547 50.548-46.321-71.372-6.9606-69.023-115.89-12.132-121.55z"/>
      <path d="m140.97 267.98c2.9858 69.659 36.445 50.537 51.691 38.503 1.2768-1.0078 4.4535-3.8391 5.4714-4.8072 25.412-24.17 32.457-29.701 35.842-31.539 3.361-1.8248 5.6693-3.0828 9.2343-4.3196 6.7838-2.3535 16.296-2.9322 24.056-2.9145 12.941-0.6067 27.104 0.0846 39.632 2.4204 5.3147 0.66696 10.234 2.7563 14.69 5.3321 12.827 7.3847 51.121 30.049 68.367 75.366 4.3419 11.409 6.467 25.954 6.6448 44.635 19.415-22.023 23.065-26.143 39.339-56.587 4.8637-9.0985 8.9222-24.538 9.9604-39.586 0.82379-8.2999-0.57786-14.668-2.2004-22.083-6.3687-29.063-15.179-58.08-41.909-96.556-3.6853-5.3048-7.6474-10.807-12.055-16.497 11.106 22.407 19.86 43.595 24.038 63.137 12.728 59.54 2.2019 96.6-30.99 84.739-2.9218-0.85781-5.1221-2.2445-7.2862-3.9831-16.28-13.088-37.08-34.089-54.784-41.592-12.69-5.0571-35.37-6.3681-67.969-3.9593-38.518 3.7317-46.79 38.21-71.085 50.539-4.1802 2.1213-9.0153 3.4298-14.383 4.3402-15.737 1.1503-24.059-12.542-26.304-44.588z"/>
     </g>
    </g>
   </g>
  </g>
 </g>
</svg>
