<?xml version="1.0" encoding="UTF-8" standalone="no"?>
<!-- Created with Inkscape (http://www.inkscape.org/) -->

<svg
   width="1219.2"
   height="1161.3"
   version="1.1"
   viewBox="0 0 1219.2 1161.3"
   id="svg41"
   sodipodi:docname="mando.svg"
   inkscape:version="1.1 (c68e22c387, 2021-05-23)"
   xmlns:inkscape="http://www.inkscape.org/namespaces/inkscape"
   xmlns:sodipodi="http://sodipodi.sourceforge.net/DTD/sodipodi-0.dtd"
   xmlns="http://www.w3.org/2000/svg"
   xmlns:svg="http://www.w3.org/2000/svg">
  <sodipodi:namedview
     id="namedview43"
     pagecolor="#ffffff"
     bordercolor="#666666"
     borderopacity="1.0"
     inkscape:pageshadow="2"
     inkscape:pageopacity="0.0"
     inkscape:pagecheckerboard="0"
     showgrid="false"
     inkscape:zoom="0.71643844"
     inkscape:cx="500.39191"
     inkscape:cy="431.99803"
     inkscape:window-width="1920"
     inkscape:window-height="1017"
     inkscape:window-x="-8"
     inkscape:window-y="-8"
     inkscape:window-maximized="1"
     inkscape:current-layer="g31" />
  <defs
     id="defs13">
    <filter
       id="filter6687"
       x="-0.10487263"
       y="-0.11132048"
       width="1.2192053"
       height="1.2326827"
       color-interpolation-filters="sRGB">
      <feOffset
         dx="3"
         dy="3"
         id="feOffset2" />
      <feGaussianBlur
         result="blur"
         stdDeviation="13.857249"
         id="feGaussianBlur4" />
      <feFlood
         flood-color="rgb(0,0,0)"
         result="flood"
         id="feFlood6" />
      <feComposite
         in="flood"
         in2="SourceGraphic"
         operator="in"
         result="composite"
         id="feComposite8" />
      <feBlend
         in="blur"
         in2="composite"
         id="feBlend10" />
    </filter>
  </defs>
  <g
     transform="translate(39.756 55.183)"
     id="g39">
    <g
       transform="translate(-75.769 -62.338)"
       stroke="#fff"
       id="g37">
      <g
         transform="matrix(3.1533 0 0 3.1533 -303.38 -241.23)"
         id="g35">
        <g
           stroke="none"
           id="g33">
          <path
             d="m382.74 410.78c12.508-7.5607 41.492-25.637 58.619-56.309 15.491-27.742 21.181-56.246 12.77-93.558-3.3847-15.015-8.811-31.104-16.998-48.241-1.2501-2.6168-2.7038-5.1903-3.9461-7.9235-13.219-29.084-27.029-45.169-48.63-70.132l17.232 41.225c-5.0907-5.3364-8.6643-10.59-12.055-16.497-5.5782-9.7189-8.9179-20.665-13.433-30.818-1.4467-3.2531-2.4505-6.4868-4.7707-8.916-0.30699-0.32148-0.62067-0.63381-0.94123-0.93673-6.2769-5.9316-15.19-8.2562-28.117-5.0869-0.10438 0.0256-0.20901 0.0515-0.31391 0.0778-53.804 11.047-79.174 11.047-121.2-0.21691-11.115-2.949-22.532-1.8951-35.652 8.796-4.347 3.2516-7.4628 6.96-10.131 11.371-3.3637 5.5706-6.2955 11.694-8.3794 17.829l-17.652 51.966c-8.7683 34.997-7.6753 45.063-8.2486 59.25 0 1.8328-0.0115 3.6061 0.0796 5.3172 1.7234 32.382 9.4108 45.056 17.019 48.844 1.1761 0.70449 2.3887 0.87501 3.6326 0.92139 30.612 6.0548 61.472-49.281 84.987-52.66 8.3274-1.1966 17.078-1.7593 24.738-1.6107 8.7623 0.16996 16.612 0.10365 23.054 1.601 5.0157 0.8358 9.6397 3.3273 13.671 5.5317 30.747 16.855 61.576 47.08 72.449 77.787 6.3313 18.652 6.8928 43.121 2.2188 62.388z"
             fill="#fff"
             filter="url(#filter6687)"
             id="path15" />
          <path
             d="m382.74 410.78c12.508-7.5607 41.492-25.637 58.619-56.309 15.491-27.742 21.181-56.246 12.77-93.558-3.3847-15.015-8.811-31.104-16.998-48.241-1.2501-2.6168-2.7038-5.1903-3.9461-7.9235-13.219-29.084-27.029-45.169-48.63-70.132l17.232 41.225c-5.0907-5.3364-8.6643-10.59-12.055-16.497-5.5782-9.7189-8.9179-20.665-13.433-30.818-1.4467-3.2531-2.4505-6.4868-4.7707-8.916-0.30699-0.32148-0.62067-0.63381-0.94123-0.93673-6.2769-5.9316-15.19-8.2562-28.117-5.0869-0.10438 0.0256-0.20901 0.0515-0.31391 0.0778-53.804 11.047-79.174 11.047-121.2-0.21691-11.115-2.949-22.532-1.8951-35.652 8.796-4.347 3.2516-7.4628 6.96-10.131 11.371-3.3637 5.5706-6.2955 11.694-8.3794 17.829l-17.652 51.966c-8.7683 34.997-7.6753 45.063-8.2486 59.25 0 1.8328-0.0115 3.6061 0.0796 5.3172 1.7234 32.382 11.314 43.787 18.922 47.576 1.1761 0.70449 2.3887 0.87501 3.6326 0.92139 31.564 1.1394 59.569-49.281 83.084-52.66 8.3274-1.1966 17.078-1.7593 24.738-1.6107 8.7623 0.16996 16.612 1.3721 23.054 2.8694 5.0157 0.8358 9.6397 3.3273 13.671 5.5317 30.747 16.855 61.576 47.08 72.449 77.787 6.3313 18.652 6.8928 43.121 2.2188 62.388z"
             fill="#fff"
             id="path17" />
          <g
             fill="#6421ac"
             id="g31" />
        </g>
      </g>
    </g>
  </g>
</svg>
